# xmcd
#
# Track frame offsets:
#	150
#	18866
#	40738
#	60633
#
# Disc length: 947 seconds
#
# Revision: 1
# Processed by: cddbd v1.5.2PL0 Copyright (c) Steve Scherf et al.
# Submitted via: audiograbber 1.83.01
#
DISCID=2603b104
DTITLE=Ian Parker - Your Love Is My Home
DYEAR=2007
DGENRE=Blues
TTITLE0=Your Love Is My Home (Radio Edit)
TTITLE1=With Or Without You
TTITLE2=Sweet Singing Sirens
TTITLE3=Before Sunrise
EXTD=
EXTT0=
EXTT1=
EXTT2=
EXTT3=
PLAYORDER=
